# xmcd
#
# Track frame offsets: 
#        150
#        20745
#        42639
#        57817
#        83573
#        110947
#        130323
#        155018
#        173541
#        196729
#        219997
#        252160
#        294100
#
# Disc length: 4332 seconds
#
# Revision: 0
# Processed by: cddbd v1.5.1PL0 Copyright (c) Steve Scherf et al.
# Submitted via: ExactAudioCopy v0.95a5
#
DISCID=b210ea0d
DTITLE=Garth Brooks - Friends In Low Prices
DYEAR=1998
DGENRE=Country
TTITLE0=Rodeo
TTITLE1=Two Pina Coladas
TTITLE2=Two Of A Kind, Workin' On A Full House
TTITLE3=The Thunder Rolls
TTITLE4=We Shall Be Free
TTITLE5=To Make You Feel My Love
TTITLE6=The River
TTITLE7=Papa Loved Mama
TTITLE8=Standing Outside The Fire
TTITLE9=In Another's Eyes
TTITLE10=The Fever
TTITLE11=Friends In Low Places
TTITLE12=The Dance
EXTD=
EXTT0=
EXTT1=
EXTT2=
EXTT3=
EXTT4=
EXTT5=
EXTT6=
EXTT7=
EXTT8=
EXTT9=
EXTT10=
EXTT11=
EXTT12=
PLAYORDER=
